<mxfile host="Electron" agent="Mozilla/5.0 (Macintosh; Intel Mac OS X 10_15_7) AppleWebKit/537.36 (KHTML, like Gecko) draw.io/26.2.2 Chrome/134.0.6998.178 Electron/35.1.2 Safari/537.36" version="26.2.2" pages="4">
  <diagram name="core-level-verification" id="_a87JNLL5NuJEzJOl_LE">
    <mxGraphModel dx="856" dy="483" grid="1" gridSize="10" guides="1" tooltips="1" connect="1" arrows="1" fold="1" page="1" pageScale="1" pageWidth="850" pageHeight="1100" math="0" shadow="0">
      <root>
        <mxCell id="xpFfis6_NDYaHm0BwL09-0" />
        <mxCell id="xpFfis6_NDYaHm0BwL09-1" parent="xpFfis6_NDYaHm0BwL09-0" />
        <mxCell id="xpFfis6_NDYaHm0BwL09-2" value="" style="whiteSpace=wrap;html=1;fillColor=#dae8fc;strokeWidth=3;align=center;verticalAlign=top;strokeColor=#6c8ebf;gradientColor=#7ea6e0;" vertex="1" parent="xpFfis6_NDYaHm0BwL09-1">
          <mxGeometry x="160" y="60" width="210" height="300" as="geometry" />
        </mxCell>
        <mxCell id="xpFfis6_NDYaHm0BwL09-4" value="TVS 3.0" style="whiteSpace=wrap;html=1;fillColor=#d5e8d4;textShadow=0;strokeColor=#82b366;strokeWidth=3;horizontal=1;verticalAlign=top;fontSize=16;gradientColor=#97d077;align=left;" vertex="1" parent="xpFfis6_NDYaHm0BwL09-1">
          <mxGeometry x="180" y="200" width="170" height="150" as="geometry" />
        </mxCell>
        <mxCell id="xpFfis6_NDYaHm0BwL09-23" value="TVS FPGA" style="rounded=0;whiteSpace=wrap;html=1;fillColor=#008a00;fontColor=#ffffff;strokeColor=#005700;horizontal=0;verticalAlign=top;" vertex="1" parent="xpFfis6_NDYaHm0BwL09-1">
          <mxGeometry x="190" y="230" width="150" height="110" as="geometry" />
        </mxCell>
        <mxCell id="xpFfis6_NDYaHm0BwL09-25" value="&lt;div&gt;&lt;span style=&quot;font-size: 16px;&quot;&gt;Test Bench&amp;nbsp;&lt;/span&gt;&lt;/div&gt;&lt;div&gt;&lt;span style=&quot;font-size: 16px;&quot;&gt;Logic&lt;/span&gt;&lt;/div&gt;" style="text;html=1;align=center;verticalAlign=middle;resizable=0;points=[];autosize=1;strokeColor=none;fillColor=none;fontColor=#FFFFFF;" vertex="1" parent="xpFfis6_NDYaHm0BwL09-1">
          <mxGeometry x="210" y="230" width="110" height="50" as="geometry" />
        </mxCell>
        <mxCell id="xpFfis6_NDYaHm0BwL09-3" value="" style="whiteSpace=wrap;html=1;fillColor=light-dark(#feffc7, #281d00);textShadow=0;strokeColor=light-dark(#CCCC00,#6D5100);strokeWidth=3;horizontal=0;verticalAlign=top;fontSize=16;gradientColor=light-dark(#d7e236, #543300);gradientDirection=south;" vertex="1" parent="xpFfis6_NDYaHm0BwL09-1">
          <mxGeometry x="180" y="70" width="170" height="100" as="geometry" />
        </mxCell>
        <mxCell id="xpFfis6_NDYaHm0BwL09-5" value="&lt;font style=&quot;font-size: 24px;&quot;&gt;DUT&lt;/font&gt;" style="whiteSpace=wrap;html=1;fillColor=#ffcd28;textShadow=0;strokeColor=#d79b00;strokeWidth=3;gradientColor=#ffa500;" vertex="1" parent="xpFfis6_NDYaHm0BwL09-1">
          <mxGeometry x="230" y="284" width="90" height="32" as="geometry" />
        </mxCell>
        <mxCell id="xpFfis6_NDYaHm0BwL09-8" value="&lt;span style=&quot;font-size: 16px;&quot;&gt;Randomized Tests&lt;/span&gt;" style="text;html=1;align=center;verticalAlign=middle;resizable=0;points=[];autosize=1;strokeColor=none;fillColor=none;fontColor=default;" vertex="1" parent="xpFfis6_NDYaHm0BwL09-1">
          <mxGeometry x="190" y="140" width="150" height="30" as="geometry" />
        </mxCell>
        <mxCell id="xpFfis6_NDYaHm0BwL09-9" value="&lt;span style=&quot;font-size: 16px;&quot;&gt;Directed Tests&lt;/span&gt;" style="text;html=1;align=center;verticalAlign=middle;resizable=0;points=[];autosize=1;strokeColor=none;fillColor=none;fontColor=default;" vertex="1" parent="xpFfis6_NDYaHm0BwL09-1">
          <mxGeometry x="205" y="120" width="120" height="30" as="geometry" />
        </mxCell>
        <mxCell id="xpFfis6_NDYaHm0BwL09-10" value="&lt;div&gt;&lt;span style=&quot;font-size: 16px;&quot;&gt;Host PC&lt;/span&gt;&lt;/div&gt;" style="text;html=1;align=center;verticalAlign=middle;resizable=0;points=[];autosize=1;strokeColor=none;fillColor=none;fontColor=default;fontStyle=1" vertex="1" parent="xpFfis6_NDYaHm0BwL09-1">
          <mxGeometry x="225" y="80" width="80" height="30" as="geometry" />
        </mxCell>
        <mxCell id="xpFfis6_NDYaHm0BwL09-12" value="" style="endArrow=classic;html=1;rounded=0;strokeWidth=2;exitX=0.5;exitY=0;exitDx=0;exitDy=0;strokeColor=#10739E;entryX=0.5;entryY=1;entryDx=0;entryDy=0;startArrow=classic;startFill=1;" edge="1" parent="xpFfis6_NDYaHm0BwL09-1" source="xpFfis6_NDYaHm0BwL09-23" target="xpFfis6_NDYaHm0BwL09-3">
          <mxGeometry width="50" height="50" relative="1" as="geometry">
            <mxPoint x="264.65999999999997" y="230" as="sourcePoint" />
            <mxPoint x="264.65999999999997" y="190" as="targetPoint" />
          </mxGeometry>
        </mxCell>
        <mxCell id="xpFfis6_NDYaHm0BwL09-13" value="Abstraction&lt;div&gt;Layer&lt;/div&gt;" style="edgeLabel;html=1;align=left;verticalAlign=middle;resizable=0;points=[];labelBackgroundColor=none;" vertex="1" connectable="0" parent="xpFfis6_NDYaHm0BwL09-12">
          <mxGeometry x="0.3667" y="-1" relative="1" as="geometry">
            <mxPoint x="6" y="-4" as="offset" />
          </mxGeometry>
        </mxCell>
      </root>
    </mxGraphModel>
  </diagram>
  <diagram name="card-level-verification" id="DG-_PayOttamEuJyRk5a">
    <mxGraphModel dx="921" dy="483" grid="1" gridSize="10" guides="1" tooltips="1" connect="1" arrows="1" fold="1" page="1" pageScale="1" pageWidth="850" pageHeight="1100" math="0" shadow="0">
      <root>
        <mxCell id="e30QHcgsPIElMgY6zNXj-0" />
        <mxCell id="e30QHcgsPIElMgY6zNXj-1" parent="e30QHcgsPIElMgY6zNXj-0" />
        <mxCell id="e30QHcgsPIElMgY6zNXj-2" value="" style="whiteSpace=wrap;html=1;fillColor=#dae8fc;strokeWidth=3;align=center;verticalAlign=top;strokeColor=#6c8ebf;gradientColor=#7ea6e0;" vertex="1" parent="e30QHcgsPIElMgY6zNXj-1">
          <mxGeometry x="179" y="60" width="190" height="390" as="geometry" />
        </mxCell>
        <mxCell id="e30QHcgsPIElMgY6zNXj-4" value="TVS 3.0" style="whiteSpace=wrap;html=1;fillColor=#d5e8d4;textShadow=0;strokeColor=#82b366;strokeWidth=3;horizontal=1;verticalAlign=top;fontSize=16;gradientColor=#97d077;align=left;" vertex="1" parent="e30QHcgsPIElMgY6zNXj-1">
          <mxGeometry x="189" y="200" width="170" height="160" as="geometry" />
        </mxCell>
        <mxCell id="e30QHcgsPIElMgY6zNXj-5" value="&lt;font style=&quot;font-size: 24px;&quot;&gt;DUT&lt;/font&gt;" style="whiteSpace=wrap;html=1;fillColor=#ffcd28;textShadow=0;strokeColor=#d79b00;strokeWidth=3;gradientColor=#ffa500;" vertex="1" parent="e30QHcgsPIElMgY6zNXj-1">
          <mxGeometry x="189" y="388" width="170" height="50" as="geometry" />
        </mxCell>
        <mxCell id="e30QHcgsPIElMgY6zNXj-6" value="" style="endArrow=classic;html=1;rounded=0;entryX=0.25;entryY=0;entryDx=0;entryDy=0;strokeWidth=4;strokeColor=#10739E;exitX=0.25;exitY=1;exitDx=0;exitDy=0;" edge="1" parent="e30QHcgsPIElMgY6zNXj-1" source="e30QHcgsPIElMgY6zNXj-4" target="e30QHcgsPIElMgY6zNXj-5">
          <mxGeometry width="50" height="50" relative="1" as="geometry">
            <mxPoint x="389" y="320" as="sourcePoint" />
            <mxPoint x="439" y="270" as="targetPoint" />
          </mxGeometry>
        </mxCell>
        <mxCell id="e30QHcgsPIElMgY6zNXj-7" value="" style="endArrow=classic;html=1;rounded=0;strokeWidth=4;exitX=0.75;exitY=0;exitDx=0;exitDy=0;strokeColor=#10739E;entryX=0.75;entryY=1;entryDx=0;entryDy=0;" edge="1" parent="e30QHcgsPIElMgY6zNXj-1" source="e30QHcgsPIElMgY6zNXj-5" target="e30QHcgsPIElMgY6zNXj-4">
          <mxGeometry width="50" height="50" relative="1" as="geometry">
            <mxPoint x="639" y="320" as="sourcePoint" />
            <mxPoint x="369" y="255" as="targetPoint" />
          </mxGeometry>
        </mxCell>
        <mxCell id="e30QHcgsPIElMgY6zNXj-12" value="" style="endArrow=classic;html=1;rounded=0;strokeWidth=2;exitX=0.5;exitY=0;exitDx=0;exitDy=0;strokeColor=#10739E;startArrow=classic;startFill=1;entryX=0.5;entryY=1;entryDx=0;entryDy=0;" edge="1" parent="e30QHcgsPIElMgY6zNXj-1" source="e30QHcgsPIElMgY6zNXj-23" target="MVjb6G8TwnB1PhbB7M_g-4">
          <mxGeometry width="50" height="50" relative="1" as="geometry">
            <mxPoint x="273.65999999999997" y="230" as="sourcePoint" />
            <mxPoint x="274" y="160" as="targetPoint" />
          </mxGeometry>
        </mxCell>
        <mxCell id="e30QHcgsPIElMgY6zNXj-13" value="Abstraction&lt;div&gt;Layer&lt;/div&gt;" style="edgeLabel;html=1;align=left;verticalAlign=middle;resizable=0;points=[];labelBackgroundColor=none;" vertex="1" connectable="0" parent="e30QHcgsPIElMgY6zNXj-12">
          <mxGeometry x="0.3667" y="-1" relative="1" as="geometry">
            <mxPoint x="6" y="-4" as="offset" />
          </mxGeometry>
        </mxCell>
        <mxCell id="e30QHcgsPIElMgY6zNXj-18" value="Mod 1" style="rounded=0;whiteSpace=wrap;html=1;horizontal=0;fillColor=#d5e8d4;strokeColor=#82b366;" vertex="1" parent="e30QHcgsPIElMgY6zNXj-1">
          <mxGeometry x="211.63" y="300" width="25.5" height="60" as="geometry" />
        </mxCell>
        <mxCell id="e30QHcgsPIElMgY6zNXj-19" value="Mod 2" style="rounded=0;whiteSpace=wrap;html=1;horizontal=0;fillColor=#d5e8d4;strokeColor=#82b366;" vertex="1" parent="e30QHcgsPIElMgY6zNXj-1">
          <mxGeometry x="237.13" y="300" width="25.5" height="60" as="geometry" />
        </mxCell>
        <mxCell id="e30QHcgsPIElMgY6zNXj-20" value="Mod 3" style="rounded=0;whiteSpace=wrap;html=1;horizontal=0;fillColor=#d5e8d4;strokeColor=#82b366;" vertex="1" parent="e30QHcgsPIElMgY6zNXj-1">
          <mxGeometry x="262.63" y="300" width="25.5" height="60" as="geometry" />
        </mxCell>
        <mxCell id="e30QHcgsPIElMgY6zNXj-21" value="Mod 4" style="rounded=0;whiteSpace=wrap;html=1;horizontal=0;fillColor=#d5e8d4;strokeColor=#82b366;" vertex="1" parent="e30QHcgsPIElMgY6zNXj-1">
          <mxGeometry x="288.13" y="300" width="25.5" height="60" as="geometry" />
        </mxCell>
        <mxCell id="e30QHcgsPIElMgY6zNXj-22" value="Mod 5" style="rounded=0;whiteSpace=wrap;html=1;horizontal=0;fillColor=#60a917;strokeColor=#2D7600;fontColor=#ffffff;" vertex="1" parent="e30QHcgsPIElMgY6zNXj-1">
          <mxGeometry x="314" y="300" width="25.5" height="60" as="geometry" />
        </mxCell>
        <mxCell id="e30QHcgsPIElMgY6zNXj-23" value="TVS FPGA" style="rounded=0;whiteSpace=wrap;html=1;fillColor=#008a00;fontColor=#ffffff;strokeColor=#005700;horizontal=0;verticalAlign=top;" vertex="1" parent="e30QHcgsPIElMgY6zNXj-1">
          <mxGeometry x="199" y="230" width="150" height="70" as="geometry" />
        </mxCell>
        <mxCell id="e30QHcgsPIElMgY6zNXj-24" value="&lt;div&gt;&lt;span style=&quot;font-size: 16px;&quot;&gt;Protocol Logic&lt;/span&gt;&lt;/div&gt;" style="text;html=1;align=left;verticalAlign=middle;resizable=0;points=[];autosize=1;strokeColor=none;fillColor=none;fontColor=#FFFFFF;" vertex="1" parent="e30QHcgsPIElMgY6zNXj-1">
          <mxGeometry x="224" y="266" width="120" height="30" as="geometry" />
        </mxCell>
        <mxCell id="e30QHcgsPIElMgY6zNXj-25" value="&lt;div&gt;&lt;span style=&quot;font-size: 16px;&quot;&gt;Buffering&lt;/span&gt;&lt;/div&gt;" style="text;html=1;align=center;verticalAlign=middle;resizable=0;points=[];autosize=1;strokeColor=none;fillColor=none;fontColor=#FFFFFF;" vertex="1" parent="e30QHcgsPIElMgY6zNXj-1">
          <mxGeometry x="229" y="233" width="90" height="30" as="geometry" />
        </mxCell>
        <mxCell id="MVjb6G8TwnB1PhbB7M_g-4" value="" style="whiteSpace=wrap;html=1;fillColor=light-dark(#feffc7, #281d00);textShadow=0;strokeColor=light-dark(#CCCC00,#6D5100);strokeWidth=3;horizontal=0;verticalAlign=top;fontSize=16;gradientColor=light-dark(#d7e236, #543300);gradientDirection=south;" vertex="1" parent="e30QHcgsPIElMgY6zNXj-1">
          <mxGeometry x="189" y="69" width="170" height="100" as="geometry" />
        </mxCell>
        <mxCell id="MVjb6G8TwnB1PhbB7M_g-5" value="&lt;span style=&quot;font-size: 16px;&quot;&gt;Randomized Tests&lt;/span&gt;" style="text;html=1;align=center;verticalAlign=middle;resizable=0;points=[];autosize=1;strokeColor=none;fillColor=none;fontColor=default;" vertex="1" parent="e30QHcgsPIElMgY6zNXj-1">
          <mxGeometry x="198" y="139" width="150" height="30" as="geometry" />
        </mxCell>
        <mxCell id="MVjb6G8TwnB1PhbB7M_g-6" value="&lt;span style=&quot;font-size: 16px;&quot;&gt;Directed Tests&lt;/span&gt;" style="text;html=1;align=center;verticalAlign=middle;resizable=0;points=[];autosize=1;strokeColor=none;fillColor=none;fontColor=default;" vertex="1" parent="e30QHcgsPIElMgY6zNXj-1">
          <mxGeometry x="213" y="119" width="120" height="30" as="geometry" />
        </mxCell>
        <mxCell id="MVjb6G8TwnB1PhbB7M_g-7" value="&lt;div&gt;&lt;span style=&quot;font-size: 16px;&quot;&gt;Host PC&lt;/span&gt;&lt;/div&gt;" style="text;html=1;align=center;verticalAlign=middle;resizable=0;points=[];autosize=1;strokeColor=none;fillColor=none;fontColor=default;fontStyle=1" vertex="1" parent="e30QHcgsPIElMgY6zNXj-1">
          <mxGeometry x="233" y="79" width="80" height="30" as="geometry" />
        </mxCell>
        <mxCell id="MVjb6G8TwnB1PhbB7M_g-8" value="" style="whiteSpace=wrap;html=1;fillColor=#dae8fc;strokeWidth=3;align=center;verticalAlign=top;strokeColor=#6c8ebf;gradientColor=#7ea6e0;" vertex="1" parent="e30QHcgsPIElMgY6zNXj-1">
          <mxGeometry x="380" y="60" width="190" height="390" as="geometry" />
        </mxCell>
        <mxCell id="MVjb6G8TwnB1PhbB7M_g-9" value="TVS 3.0" style="whiteSpace=wrap;html=1;fillColor=#d5e8d4;textShadow=0;strokeColor=#82b366;strokeWidth=3;horizontal=1;verticalAlign=top;fontSize=16;gradientColor=#97d077;align=left;" vertex="1" parent="e30QHcgsPIElMgY6zNXj-1">
          <mxGeometry x="390" y="70" width="170" height="290" as="geometry" />
        </mxCell>
        <mxCell id="MVjb6G8TwnB1PhbB7M_g-10" value="&lt;font style=&quot;font-size: 24px;&quot;&gt;DUT&lt;/font&gt;" style="whiteSpace=wrap;html=1;fillColor=#ffcd28;textShadow=0;strokeColor=#d79b00;strokeWidth=3;gradientColor=#ffa500;" vertex="1" parent="e30QHcgsPIElMgY6zNXj-1">
          <mxGeometry x="390" y="388" width="170" height="50" as="geometry" />
        </mxCell>
        <mxCell id="MVjb6G8TwnB1PhbB7M_g-11" value="" style="endArrow=classic;html=1;rounded=0;entryX=0.25;entryY=0;entryDx=0;entryDy=0;strokeWidth=4;strokeColor=#10739E;exitX=0.25;exitY=1;exitDx=0;exitDy=0;" edge="1" parent="e30QHcgsPIElMgY6zNXj-1" source="MVjb6G8TwnB1PhbB7M_g-9" target="MVjb6G8TwnB1PhbB7M_g-10">
          <mxGeometry width="50" height="50" relative="1" as="geometry">
            <mxPoint x="590" y="320" as="sourcePoint" />
            <mxPoint x="640" y="270" as="targetPoint" />
          </mxGeometry>
        </mxCell>
        <mxCell id="MVjb6G8TwnB1PhbB7M_g-12" value="" style="endArrow=classic;html=1;rounded=0;strokeWidth=4;exitX=0.75;exitY=0;exitDx=0;exitDy=0;strokeColor=#10739E;entryX=0.75;entryY=1;entryDx=0;entryDy=0;" edge="1" parent="e30QHcgsPIElMgY6zNXj-1" source="MVjb6G8TwnB1PhbB7M_g-10" target="MVjb6G8TwnB1PhbB7M_g-9">
          <mxGeometry width="50" height="50" relative="1" as="geometry">
            <mxPoint x="840" y="320" as="sourcePoint" />
            <mxPoint x="570" y="255" as="targetPoint" />
          </mxGeometry>
        </mxCell>
        <mxCell id="MVjb6G8TwnB1PhbB7M_g-13" value="" style="endArrow=classic;html=1;rounded=0;strokeWidth=2;exitX=0.5;exitY=0;exitDx=0;exitDy=0;strokeColor=#10739E;startArrow=classic;startFill=1;entryX=0.5;entryY=1;entryDx=0;entryDy=0;" edge="1" parent="e30QHcgsPIElMgY6zNXj-1" source="MVjb6G8TwnB1PhbB7M_g-20" target="MVjb6G8TwnB1PhbB7M_g-23">
          <mxGeometry width="50" height="50" relative="1" as="geometry">
            <mxPoint x="474.65999999999997" y="230" as="sourcePoint" />
            <mxPoint x="475" y="160" as="targetPoint" />
          </mxGeometry>
        </mxCell>
        <mxCell id="MVjb6G8TwnB1PhbB7M_g-14" value="Abstraction&lt;div&gt;Layer&lt;/div&gt;" style="edgeLabel;html=1;align=left;verticalAlign=middle;resizable=0;points=[];labelBackgroundColor=none;" vertex="1" connectable="0" parent="MVjb6G8TwnB1PhbB7M_g-13">
          <mxGeometry x="0.3667" y="-1" relative="1" as="geometry">
            <mxPoint x="9" y="6" as="offset" />
          </mxGeometry>
        </mxCell>
        <mxCell id="MVjb6G8TwnB1PhbB7M_g-15" value="Mod 1" style="rounded=0;whiteSpace=wrap;html=1;horizontal=0;fillColor=#d5e8d4;strokeColor=#82b366;" vertex="1" parent="e30QHcgsPIElMgY6zNXj-1">
          <mxGeometry x="412.63" y="300" width="25.5" height="60" as="geometry" />
        </mxCell>
        <mxCell id="MVjb6G8TwnB1PhbB7M_g-16" value="Mod 2" style="rounded=0;whiteSpace=wrap;html=1;horizontal=0;fillColor=#d5e8d4;strokeColor=#82b366;" vertex="1" parent="e30QHcgsPIElMgY6zNXj-1">
          <mxGeometry x="438.13" y="300" width="25.5" height="60" as="geometry" />
        </mxCell>
        <mxCell id="MVjb6G8TwnB1PhbB7M_g-17" value="Mod 3" style="rounded=0;whiteSpace=wrap;html=1;horizontal=0;fillColor=#d5e8d4;strokeColor=#82b366;" vertex="1" parent="e30QHcgsPIElMgY6zNXj-1">
          <mxGeometry x="463.63" y="300" width="25.5" height="60" as="geometry" />
        </mxCell>
        <mxCell id="MVjb6G8TwnB1PhbB7M_g-18" value="Mod 4" style="rounded=0;whiteSpace=wrap;html=1;horizontal=0;fillColor=#d5e8d4;strokeColor=#82b366;" vertex="1" parent="e30QHcgsPIElMgY6zNXj-1">
          <mxGeometry x="489.13" y="300" width="25.5" height="60" as="geometry" />
        </mxCell>
        <mxCell id="MVjb6G8TwnB1PhbB7M_g-19" value="Mod 5" style="rounded=0;whiteSpace=wrap;html=1;horizontal=0;fillColor=#60a917;strokeColor=#2D7600;fontColor=#ffffff;" vertex="1" parent="e30QHcgsPIElMgY6zNXj-1">
          <mxGeometry x="515" y="300" width="25.5" height="60" as="geometry" />
        </mxCell>
        <mxCell id="MVjb6G8TwnB1PhbB7M_g-20" value="TVS FPGA" style="rounded=0;whiteSpace=wrap;html=1;fillColor=#008a00;fontColor=#ffffff;strokeColor=#005700;horizontal=0;verticalAlign=top;" vertex="1" parent="e30QHcgsPIElMgY6zNXj-1">
          <mxGeometry x="400" y="230" width="150" height="70" as="geometry" />
        </mxCell>
        <mxCell id="MVjb6G8TwnB1PhbB7M_g-21" value="&lt;div&gt;&lt;span style=&quot;font-size: 16px;&quot;&gt;Protocol Logic&lt;/span&gt;&lt;/div&gt;" style="text;html=1;align=left;verticalAlign=middle;resizable=0;points=[];autosize=1;strokeColor=none;fillColor=none;fontColor=#FFFFFF;" vertex="1" parent="e30QHcgsPIElMgY6zNXj-1">
          <mxGeometry x="425" y="266" width="120" height="30" as="geometry" />
        </mxCell>
        <mxCell id="MVjb6G8TwnB1PhbB7M_g-22" value="&lt;div&gt;&lt;span style=&quot;font-size: 16px;&quot;&gt;Buffering&lt;/span&gt;&lt;/div&gt;" style="text;html=1;align=center;verticalAlign=middle;resizable=0;points=[];autosize=1;strokeColor=none;fillColor=none;fontColor=#FFFFFF;" vertex="1" parent="e30QHcgsPIElMgY6zNXj-1">
          <mxGeometry x="430" y="233" width="90" height="30" as="geometry" />
        </mxCell>
        <mxCell id="MVjb6G8TwnB1PhbB7M_g-23" value="" style="whiteSpace=wrap;html=1;fillColor=light-dark(#feffc7, #281d00);textShadow=0;strokeColor=light-dark(#CCCC00,#6D5100);strokeWidth=3;horizontal=0;verticalAlign=top;fontSize=16;gradientColor=light-dark(#d7e236, #543300);gradientDirection=south;" vertex="1" parent="e30QHcgsPIElMgY6zNXj-1">
          <mxGeometry x="400" y="110" width="150" height="89" as="geometry" />
        </mxCell>
        <mxCell id="MVjb6G8TwnB1PhbB7M_g-24" value="&lt;span style=&quot;font-size: 16px;&quot;&gt;Randomized Tests&lt;/span&gt;" style="text;html=1;align=center;verticalAlign=middle;resizable=0;points=[];autosize=1;strokeColor=none;fillColor=none;fontColor=default;" vertex="1" parent="e30QHcgsPIElMgY6zNXj-1">
          <mxGeometry x="399" y="169" width="150" height="30" as="geometry" />
        </mxCell>
        <mxCell id="MVjb6G8TwnB1PhbB7M_g-25" value="&lt;span style=&quot;font-size: 16px;&quot;&gt;Directed Tests&lt;/span&gt;" style="text;html=1;align=center;verticalAlign=middle;resizable=0;points=[];autosize=1;strokeColor=none;fillColor=none;fontColor=default;" vertex="1" parent="e30QHcgsPIElMgY6zNXj-1">
          <mxGeometry x="414" y="149" width="120" height="30" as="geometry" />
        </mxCell>
        <mxCell id="MVjb6G8TwnB1PhbB7M_g-26" value="&lt;div&gt;&lt;span style=&quot;font-size: 16px;&quot;&gt;Pi-5&lt;/span&gt;&lt;/div&gt;" style="text;html=1;align=center;verticalAlign=middle;resizable=0;points=[];autosize=1;strokeColor=none;fillColor=none;fontColor=default;fontStyle=1" vertex="1" parent="e30QHcgsPIElMgY6zNXj-1">
          <mxGeometry x="450" y="119" width="50" height="30" as="geometry" />
        </mxCell>
        <mxCell id="MVjb6G8TwnB1PhbB7M_g-27" value="" style="whiteSpace=wrap;html=1;fillColor=#dae8fc;strokeWidth=3;align=center;verticalAlign=top;strokeColor=#6c8ebf;gradientColor=#7ea6e0;" vertex="1" parent="e30QHcgsPIElMgY6zNXj-1">
          <mxGeometry x="580" y="60" width="190" height="390" as="geometry" />
        </mxCell>
        <mxCell id="MVjb6G8TwnB1PhbB7M_g-28" value="TVS 3.0" style="whiteSpace=wrap;html=1;fillColor=#d5e8d4;textShadow=0;strokeColor=#82b366;strokeWidth=3;horizontal=1;verticalAlign=top;fontSize=16;gradientColor=#97d077;align=left;" vertex="1" parent="e30QHcgsPIElMgY6zNXj-1">
          <mxGeometry x="590" y="70" width="170" height="290" as="geometry" />
        </mxCell>
        <mxCell id="MVjb6G8TwnB1PhbB7M_g-29" value="&lt;font style=&quot;font-size: 24px;&quot;&gt;DUT&lt;/font&gt;" style="whiteSpace=wrap;html=1;fillColor=#ffcd28;textShadow=0;strokeColor=#d79b00;strokeWidth=3;gradientColor=#ffa500;" vertex="1" parent="e30QHcgsPIElMgY6zNXj-1">
          <mxGeometry x="590" y="388" width="170" height="50" as="geometry" />
        </mxCell>
        <mxCell id="MVjb6G8TwnB1PhbB7M_g-30" value="" style="endArrow=classic;html=1;rounded=0;entryX=0.25;entryY=0;entryDx=0;entryDy=0;strokeWidth=4;strokeColor=#10739E;exitX=0.25;exitY=1;exitDx=0;exitDy=0;" edge="1" parent="e30QHcgsPIElMgY6zNXj-1" source="MVjb6G8TwnB1PhbB7M_g-28" target="MVjb6G8TwnB1PhbB7M_g-29">
          <mxGeometry width="50" height="50" relative="1" as="geometry">
            <mxPoint x="790" y="320" as="sourcePoint" />
            <mxPoint x="840" y="270" as="targetPoint" />
          </mxGeometry>
        </mxCell>
        <mxCell id="MVjb6G8TwnB1PhbB7M_g-31" value="" style="endArrow=classic;html=1;rounded=0;strokeWidth=4;exitX=0.75;exitY=0;exitDx=0;exitDy=0;strokeColor=#10739E;entryX=0.75;entryY=1;entryDx=0;entryDy=0;" edge="1" parent="e30QHcgsPIElMgY6zNXj-1" source="MVjb6G8TwnB1PhbB7M_g-29" target="MVjb6G8TwnB1PhbB7M_g-28">
          <mxGeometry width="50" height="50" relative="1" as="geometry">
            <mxPoint x="1040" y="320" as="sourcePoint" />
            <mxPoint x="770" y="255" as="targetPoint" />
          </mxGeometry>
        </mxCell>
        <mxCell id="MVjb6G8TwnB1PhbB7M_g-32" value="" style="endArrow=classic;html=1;rounded=0;strokeWidth=2;exitX=0.5;exitY=0;exitDx=0;exitDy=0;strokeColor=#10739E;startArrow=classic;startFill=1;entryX=0.5;entryY=1;entryDx=0;entryDy=0;" edge="1" parent="e30QHcgsPIElMgY6zNXj-1" source="MVjb6G8TwnB1PhbB7M_g-39" target="MVjb6G8TwnB1PhbB7M_g-42">
          <mxGeometry width="50" height="50" relative="1" as="geometry">
            <mxPoint x="674.66" y="230" as="sourcePoint" />
            <mxPoint x="675" y="160" as="targetPoint" />
          </mxGeometry>
        </mxCell>
        <mxCell id="MVjb6G8TwnB1PhbB7M_g-33" value="OCB" style="edgeLabel;html=1;align=left;verticalAlign=middle;resizable=0;points=[];labelBackgroundColor=none;" vertex="1" connectable="0" parent="MVjb6G8TwnB1PhbB7M_g-32">
          <mxGeometry x="0.3667" y="-1" relative="1" as="geometry">
            <mxPoint x="9" y="6" as="offset" />
          </mxGeometry>
        </mxCell>
        <mxCell id="MVjb6G8TwnB1PhbB7M_g-34" value="Mod 1" style="rounded=0;whiteSpace=wrap;html=1;horizontal=0;fillColor=#d5e8d4;strokeColor=#82b366;" vertex="1" parent="e30QHcgsPIElMgY6zNXj-1">
          <mxGeometry x="612.63" y="300" width="25.5" height="60" as="geometry" />
        </mxCell>
        <mxCell id="MVjb6G8TwnB1PhbB7M_g-35" value="Mod 2" style="rounded=0;whiteSpace=wrap;html=1;horizontal=0;fillColor=#d5e8d4;strokeColor=#82b366;" vertex="1" parent="e30QHcgsPIElMgY6zNXj-1">
          <mxGeometry x="638.13" y="300" width="25.5" height="60" as="geometry" />
        </mxCell>
        <mxCell id="MVjb6G8TwnB1PhbB7M_g-36" value="Mod 3" style="rounded=0;whiteSpace=wrap;html=1;horizontal=0;fillColor=#d5e8d4;strokeColor=#82b366;" vertex="1" parent="e30QHcgsPIElMgY6zNXj-1">
          <mxGeometry x="663.63" y="300" width="25.5" height="60" as="geometry" />
        </mxCell>
        <mxCell id="MVjb6G8TwnB1PhbB7M_g-37" value="Mod 4" style="rounded=0;whiteSpace=wrap;html=1;horizontal=0;fillColor=#d5e8d4;strokeColor=#82b366;" vertex="1" parent="e30QHcgsPIElMgY6zNXj-1">
          <mxGeometry x="689.13" y="300" width="25.5" height="60" as="geometry" />
        </mxCell>
        <mxCell id="MVjb6G8TwnB1PhbB7M_g-38" value="Mod 5" style="rounded=0;whiteSpace=wrap;html=1;horizontal=0;fillColor=#60a917;strokeColor=#2D7600;fontColor=#ffffff;" vertex="1" parent="e30QHcgsPIElMgY6zNXj-1">
          <mxGeometry x="715" y="300" width="25.5" height="60" as="geometry" />
        </mxCell>
        <mxCell id="MVjb6G8TwnB1PhbB7M_g-39" value="TVS FPGA" style="rounded=0;whiteSpace=wrap;html=1;fillColor=#008a00;fontColor=#ffffff;strokeColor=#005700;horizontal=0;verticalAlign=top;align=left;" vertex="1" parent="e30QHcgsPIElMgY6zNXj-1">
          <mxGeometry x="600" y="100" width="150" height="200" as="geometry" />
        </mxCell>
        <mxCell id="MVjb6G8TwnB1PhbB7M_g-40" value="&lt;div&gt;&lt;span style=&quot;font-size: 16px;&quot;&gt;Protocol Logic&lt;/span&gt;&lt;/div&gt;" style="text;html=1;align=left;verticalAlign=middle;resizable=0;points=[];autosize=1;strokeColor=none;fillColor=none;fontColor=#FFFFFF;" vertex="1" parent="e30QHcgsPIElMgY6zNXj-1">
          <mxGeometry x="625" y="266" width="120" height="30" as="geometry" />
        </mxCell>
        <mxCell id="MVjb6G8TwnB1PhbB7M_g-41" value="&lt;div&gt;&lt;span style=&quot;font-size: 16px;&quot;&gt;Buffering&lt;/span&gt;&lt;/div&gt;" style="text;html=1;align=center;verticalAlign=middle;resizable=0;points=[];autosize=1;strokeColor=none;fillColor=none;fontColor=#FFFFFF;" vertex="1" parent="e30QHcgsPIElMgY6zNXj-1">
          <mxGeometry x="630" y="233" width="90" height="30" as="geometry" />
        </mxCell>
        <mxCell id="MVjb6G8TwnB1PhbB7M_g-42" value="" style="whiteSpace=wrap;html=1;fillColor=light-dark(#feffc7, #281d00);textShadow=0;strokeColor=light-dark(#CCCC00,#6D5100);strokeWidth=3;horizontal=0;verticalAlign=top;fontSize=16;gradientColor=light-dark(#d7e236, #543300);gradientDirection=south;" vertex="1" parent="e30QHcgsPIElMgY6zNXj-1">
          <mxGeometry x="610" y="110" width="130" height="89" as="geometry" />
        </mxCell>
        <mxCell id="MVjb6G8TwnB1PhbB7M_g-43" value="&lt;span style=&quot;font-size: 16px;&quot;&gt;Randomized Tests&lt;/span&gt;" style="text;html=1;align=center;verticalAlign=middle;resizable=0;points=[];autosize=1;strokeColor=none;fillColor=none;fontColor=default;" vertex="1" parent="e30QHcgsPIElMgY6zNXj-1">
          <mxGeometry x="599" y="169" width="150" height="30" as="geometry" />
        </mxCell>
        <mxCell id="MVjb6G8TwnB1PhbB7M_g-44" value="&lt;span style=&quot;font-size: 16px;&quot;&gt;Directed Tests&lt;/span&gt;" style="text;html=1;align=center;verticalAlign=middle;resizable=0;points=[];autosize=1;strokeColor=none;fillColor=none;fontColor=default;" vertex="1" parent="e30QHcgsPIElMgY6zNXj-1">
          <mxGeometry x="614" y="149" width="120" height="30" as="geometry" />
        </mxCell>
        <mxCell id="MVjb6G8TwnB1PhbB7M_g-45" value="&lt;div&gt;&lt;span style=&quot;font-size: 16px;&quot;&gt;Soft CPU&lt;/span&gt;&lt;/div&gt;" style="text;html=1;align=center;verticalAlign=middle;resizable=0;points=[];autosize=1;strokeColor=none;fillColor=none;fontColor=default;fontStyle=1" vertex="1" parent="e30QHcgsPIElMgY6zNXj-1">
          <mxGeometry x="630" y="119" width="90" height="30" as="geometry" />
        </mxCell>
        <mxCell id="MVjb6G8TwnB1PhbB7M_g-47" value="" style="endArrow=classic;html=1;rounded=0;strokeWidth=2;exitX=0.5;exitY=0;exitDx=0;exitDy=0;strokeColor=#FFFFFF;startArrow=classic;startFill=1;entryX=0.5;entryY=1;entryDx=0;entryDy=0;fontColor=#FFFFFF;" edge="1" parent="e30QHcgsPIElMgY6zNXj-1">
          <mxGeometry width="50" height="50" relative="1" as="geometry">
            <mxPoint x="674" y="231" as="sourcePoint" />
            <mxPoint x="674" y="200" as="targetPoint" />
          </mxGeometry>
        </mxCell>
        <mxCell id="MVjb6G8TwnB1PhbB7M_g-48" value="On Chip&amp;nbsp;&lt;div&gt;Bus&lt;/div&gt;" style="edgeLabel;html=1;align=left;verticalAlign=middle;resizable=0;points=[];labelBackgroundColor=none;fontColor=#FFFFFF;" vertex="1" connectable="0" parent="MVjb6G8TwnB1PhbB7M_g-47">
          <mxGeometry x="0.3667" y="-1" relative="1" as="geometry">
            <mxPoint x="9" y="6" as="offset" />
          </mxGeometry>
        </mxCell>
      </root>
    </mxGraphModel>
  </diagram>
  <diagram name="card-design-prototyping" id="EBS2DL2JPIJqTEMedBuh">
    <mxGraphModel dx="921" dy="483" grid="1" gridSize="10" guides="1" tooltips="1" connect="1" arrows="1" fold="1" page="1" pageScale="1" pageWidth="850" pageHeight="1100" math="0" shadow="0">
      <root>
        <mxCell id="5iW7ao-Mc7FG4s1-Aloe-0" />
        <mxCell id="5iW7ao-Mc7FG4s1-Aloe-1" parent="5iW7ao-Mc7FG4s1-Aloe-0" />
        <mxCell id="5iW7ao-Mc7FG4s1-Aloe-40" value="" style="whiteSpace=wrap;html=1;fillColor=#dae8fc;strokeWidth=3;align=center;verticalAlign=top;strokeColor=#6c8ebf;gradientColor=#7ea6e0;" vertex="1" parent="5iW7ao-Mc7FG4s1-Aloe-1">
          <mxGeometry x="250" y="60" width="190" height="390" as="geometry" />
        </mxCell>
        <mxCell id="5iW7ao-Mc7FG4s1-Aloe-41" value="TVS 3.0" style="whiteSpace=wrap;html=1;fillColor=#d5e8d4;textShadow=0;strokeColor=#82b366;strokeWidth=3;horizontal=1;verticalAlign=top;fontSize=16;gradientColor=#97d077;align=left;" vertex="1" parent="5iW7ao-Mc7FG4s1-Aloe-1">
          <mxGeometry x="260" y="70" width="170" height="290" as="geometry" />
        </mxCell>
        <mxCell id="5iW7ao-Mc7FG4s1-Aloe-45" value="" style="endArrow=classic;html=1;rounded=0;strokeWidth=2;exitX=0.5;exitY=0;exitDx=0;exitDy=0;strokeColor=#10739E;startArrow=classic;startFill=1;entryX=0.5;entryY=1;entryDx=0;entryDy=0;" edge="1" parent="5iW7ao-Mc7FG4s1-Aloe-1" source="5iW7ao-Mc7FG4s1-Aloe-52" target="5iW7ao-Mc7FG4s1-Aloe-55">
          <mxGeometry width="50" height="50" relative="1" as="geometry">
            <mxPoint x="344.65999999999997" y="230" as="sourcePoint" />
            <mxPoint x="345" y="160" as="targetPoint" />
          </mxGeometry>
        </mxCell>
        <mxCell id="5iW7ao-Mc7FG4s1-Aloe-46" value="OCB" style="edgeLabel;html=1;align=left;verticalAlign=middle;resizable=0;points=[];labelBackgroundColor=none;" vertex="1" connectable="0" parent="5iW7ao-Mc7FG4s1-Aloe-45">
          <mxGeometry x="0.3667" y="-1" relative="1" as="geometry">
            <mxPoint x="9" y="6" as="offset" />
          </mxGeometry>
        </mxCell>
        <mxCell id="5iW7ao-Mc7FG4s1-Aloe-47" value="Mod 1" style="rounded=0;whiteSpace=wrap;html=1;horizontal=0;fillColor=#d5e8d4;strokeColor=#82b366;" vertex="1" parent="5iW7ao-Mc7FG4s1-Aloe-1">
          <mxGeometry x="282.63" y="300" width="25.5" height="60" as="geometry" />
        </mxCell>
        <mxCell id="5iW7ao-Mc7FG4s1-Aloe-48" value="Mod 2" style="rounded=0;whiteSpace=wrap;html=1;horizontal=0;fillColor=#d5e8d4;strokeColor=#82b366;" vertex="1" parent="5iW7ao-Mc7FG4s1-Aloe-1">
          <mxGeometry x="308.13" y="300" width="25.5" height="60" as="geometry" />
        </mxCell>
        <mxCell id="5iW7ao-Mc7FG4s1-Aloe-49" value="Mod 3" style="rounded=0;whiteSpace=wrap;html=1;horizontal=0;fillColor=#d5e8d4;strokeColor=#82b366;" vertex="1" parent="5iW7ao-Mc7FG4s1-Aloe-1">
          <mxGeometry x="333.63" y="300" width="25.5" height="60" as="geometry" />
        </mxCell>
        <mxCell id="5iW7ao-Mc7FG4s1-Aloe-50" value="Mod 4" style="rounded=0;whiteSpace=wrap;html=1;horizontal=0;fillColor=#d5e8d4;strokeColor=#82b366;" vertex="1" parent="5iW7ao-Mc7FG4s1-Aloe-1">
          <mxGeometry x="359.13" y="300" width="25.5" height="60" as="geometry" />
        </mxCell>
        <mxCell id="5iW7ao-Mc7FG4s1-Aloe-51" value="Mod 5" style="rounded=0;whiteSpace=wrap;html=1;horizontal=0;fillColor=#60a917;strokeColor=#2D7600;fontColor=#ffffff;" vertex="1" parent="5iW7ao-Mc7FG4s1-Aloe-1">
          <mxGeometry x="385" y="300" width="25.5" height="60" as="geometry" />
        </mxCell>
        <mxCell id="5iW7ao-Mc7FG4s1-Aloe-52" value="&amp;nbsp;TVS FPGA" style="rounded=0;whiteSpace=wrap;html=1;fillColor=#008a00;fontColor=#ffffff;strokeColor=#005700;horizontal=0;verticalAlign=top;align=left;" vertex="1" parent="5iW7ao-Mc7FG4s1-Aloe-1">
          <mxGeometry x="270" y="100" width="150" height="200" as="geometry" />
        </mxCell>
        <mxCell id="5iW7ao-Mc7FG4s1-Aloe-55" value="" style="whiteSpace=wrap;html=1;fillColor=light-dark(#feffc7, #281d00);textShadow=0;strokeColor=light-dark(#CCCC00,#6D5100);strokeWidth=3;horizontal=0;verticalAlign=top;fontSize=16;gradientColor=light-dark(#d7e236, #543300);gradientDirection=south;" vertex="1" parent="5iW7ao-Mc7FG4s1-Aloe-1">
          <mxGeometry x="280" y="110" width="130" height="89" as="geometry" />
        </mxCell>
        <mxCell id="5iW7ao-Mc7FG4s1-Aloe-56" value="&lt;span style=&quot;font-size: 16px;&quot;&gt;(if applicable)&lt;/span&gt;" style="text;html=1;align=center;verticalAlign=middle;resizable=0;points=[];autosize=1;strokeColor=none;fillColor=none;fontColor=default;" vertex="1" parent="5iW7ao-Mc7FG4s1-Aloe-1">
          <mxGeometry x="284" y="169" width="120" height="30" as="geometry" />
        </mxCell>
        <mxCell id="5iW7ao-Mc7FG4s1-Aloe-57" value="&lt;span style=&quot;font-size: 16px;&quot;&gt;DUT Software&lt;/span&gt;" style="text;html=1;align=center;verticalAlign=middle;resizable=0;points=[];autosize=1;strokeColor=none;fillColor=none;fontColor=default;" vertex="1" parent="5iW7ao-Mc7FG4s1-Aloe-1">
          <mxGeometry x="284" y="149" width="120" height="30" as="geometry" />
        </mxCell>
        <mxCell id="5iW7ao-Mc7FG4s1-Aloe-58" value="&lt;div&gt;&lt;span style=&quot;font-size: 16px;&quot;&gt;Soft CPU&lt;/span&gt;&lt;/div&gt;" style="text;html=1;align=center;verticalAlign=middle;resizable=0;points=[];autosize=1;strokeColor=none;fillColor=none;fontColor=default;fontStyle=1" vertex="1" parent="5iW7ao-Mc7FG4s1-Aloe-1">
          <mxGeometry x="300" y="119" width="90" height="30" as="geometry" />
        </mxCell>
        <mxCell id="5iW7ao-Mc7FG4s1-Aloe-59" value="" style="endArrow=classic;html=1;rounded=0;strokeWidth=2;strokeColor=#FFFFFF;startArrow=classic;startFill=1;entryX=0.5;entryY=1;entryDx=0;entryDy=0;fontColor=#FFFFFF;exitX=0.426;exitY=-0.019;exitDx=0;exitDy=0;exitPerimeter=0;" edge="1" parent="5iW7ao-Mc7FG4s1-Aloe-1" source="5iW7ao-Mc7FG4s1-Aloe-42">
          <mxGeometry width="50" height="50" relative="1" as="geometry">
            <mxPoint x="344" y="240" as="sourcePoint" />
            <mxPoint x="344" y="200" as="targetPoint" />
          </mxGeometry>
        </mxCell>
        <mxCell id="5iW7ao-Mc7FG4s1-Aloe-60" value="On Chip&amp;nbsp;&lt;div&gt;Bus&lt;/div&gt;" style="edgeLabel;html=1;align=left;verticalAlign=middle;resizable=0;points=[];labelBackgroundColor=none;fontColor=#FFFFFF;" vertex="1" connectable="0" parent="5iW7ao-Mc7FG4s1-Aloe-59">
          <mxGeometry x="0.3667" y="-1" relative="1" as="geometry">
            <mxPoint x="9" y="6" as="offset" />
          </mxGeometry>
        </mxCell>
        <mxCell id="5iW7ao-Mc7FG4s1-Aloe-42" value="&lt;font style=&quot;font-size: 23px;&quot;&gt;DUT Logic&lt;/font&gt;" style="whiteSpace=wrap;html=1;fillColor=#ffcd28;textShadow=0;strokeColor=#d79b00;strokeWidth=3;gradientColor=#ffa500;" vertex="1" parent="5iW7ao-Mc7FG4s1-Aloe-1">
          <mxGeometry x="295" y="239" width="115" height="52" as="geometry" />
        </mxCell>
        <mxCell id="HuHDRODP1tNT4KuOC7Qa-2" value="&lt;font style=&quot;font-size: 18px;&quot;&gt;Other Subsystems&lt;/font&gt;" style="whiteSpace=wrap;html=1;fillColor=#f8cecc;textShadow=0;strokeColor=#b85450;strokeWidth=3;" vertex="1" parent="5iW7ao-Mc7FG4s1-Aloe-1">
          <mxGeometry x="263.38" y="390" width="166.62" height="52" as="geometry" />
        </mxCell>
        <mxCell id="HuHDRODP1tNT4KuOC7Qa-3" value="" style="group" vertex="1" connectable="0" parent="5iW7ao-Mc7FG4s1-Aloe-1">
          <mxGeometry x="310" y="362" width="75" height="28" as="geometry" />
        </mxCell>
        <mxCell id="HuHDRODP1tNT4KuOC7Qa-0" value="" style="endArrow=classic;html=1;rounded=0;entryX=0.25;entryY=0;entryDx=0;entryDy=0;strokeWidth=4;strokeColor=#10739E;exitX=0.25;exitY=1;exitDx=0;exitDy=0;" edge="1" parent="HuHDRODP1tNT4KuOC7Qa-3">
          <mxGeometry width="50" height="50" relative="1" as="geometry">
            <mxPoint as="sourcePoint" />
            <mxPoint y="28" as="targetPoint" />
          </mxGeometry>
        </mxCell>
        <mxCell id="HuHDRODP1tNT4KuOC7Qa-1" value="" style="endArrow=classic;html=1;rounded=0;strokeWidth=4;exitX=0.75;exitY=0;exitDx=0;exitDy=0;strokeColor=#10739E;entryX=0.75;entryY=1;entryDx=0;entryDy=0;" edge="1" parent="HuHDRODP1tNT4KuOC7Qa-3">
          <mxGeometry width="50" height="50" relative="1" as="geometry">
            <mxPoint x="75" y="28" as="sourcePoint" />
            <mxPoint x="75" as="targetPoint" />
          </mxGeometry>
        </mxCell>
      </root>
    </mxGraphModel>
  </diagram>
  <diagram name="card-design-emulation" id="3qHiwjxh7O-D7FX4q3JE">
    <mxGraphModel dx="921" dy="483" grid="1" gridSize="10" guides="1" tooltips="1" connect="1" arrows="1" fold="1" page="1" pageScale="1" pageWidth="850" pageHeight="1100" math="0" shadow="0">
      <root>
        <mxCell id="iYCMDxc2Xl821RrgrOWA-0" />
        <mxCell id="iYCMDxc2Xl821RrgrOWA-1" parent="iYCMDxc2Xl821RrgrOWA-0" />
        <mxCell id="iYCMDxc2Xl821RrgrOWA-2" value="" style="whiteSpace=wrap;html=1;fillColor=#dae8fc;strokeWidth=3;align=center;verticalAlign=top;strokeColor=#6c8ebf;gradientColor=#7ea6e0;" vertex="1" parent="iYCMDxc2Xl821RrgrOWA-1">
          <mxGeometry x="250" y="60" width="190" height="400" as="geometry" />
        </mxCell>
        <mxCell id="iYCMDxc2Xl821RrgrOWA-3" value="TVS 3.0" style="whiteSpace=wrap;html=1;fillColor=#d5e8d4;textShadow=0;strokeColor=#82b366;strokeWidth=3;horizontal=1;verticalAlign=top;fontSize=16;gradientColor=#97d077;align=left;" vertex="1" parent="iYCMDxc2Xl821RrgrOWA-1">
          <mxGeometry x="260" y="70" width="170" height="300" as="geometry" />
        </mxCell>
        <mxCell id="iYCMDxc2Xl821RrgrOWA-4" value="" style="endArrow=classic;html=1;rounded=0;strokeWidth=2;exitX=0.5;exitY=0;exitDx=0;exitDy=0;strokeColor=#10739E;startArrow=classic;startFill=1;entryX=0.5;entryY=1;entryDx=0;entryDy=0;" edge="1" parent="iYCMDxc2Xl821RrgrOWA-1" source="iYCMDxc2Xl821RrgrOWA-11" target="iYCMDxc2Xl821RrgrOWA-12">
          <mxGeometry width="50" height="50" relative="1" as="geometry">
            <mxPoint x="344.65999999999997" y="230" as="sourcePoint" />
            <mxPoint x="345" y="160" as="targetPoint" />
          </mxGeometry>
        </mxCell>
        <mxCell id="iYCMDxc2Xl821RrgrOWA-5" value="OCB" style="edgeLabel;html=1;align=left;verticalAlign=middle;resizable=0;points=[];labelBackgroundColor=none;" vertex="1" connectable="0" parent="iYCMDxc2Xl821RrgrOWA-4">
          <mxGeometry x="0.3667" y="-1" relative="1" as="geometry">
            <mxPoint x="9" y="6" as="offset" />
          </mxGeometry>
        </mxCell>
        <mxCell id="iYCMDxc2Xl821RrgrOWA-6" value="User Mod 1" style="rounded=0;whiteSpace=wrap;html=1;horizontal=0;fillColor=#ffcd28;strokeColor=#d79b00;gradientColor=#ffa500;" vertex="1" parent="iYCMDxc2Xl821RrgrOWA-1">
          <mxGeometry x="282.63" y="300" width="25.5" height="70" as="geometry" />
        </mxCell>
        <mxCell id="iYCMDxc2Xl821RrgrOWA-7" value="User Mod 2" style="rounded=0;whiteSpace=wrap;html=1;horizontal=0;fillColor=#ffcd28;strokeColor=#d79b00;gradientColor=#ffa500;" vertex="1" parent="iYCMDxc2Xl821RrgrOWA-1">
          <mxGeometry x="308.13" y="300" width="25.5" height="70" as="geometry" />
        </mxCell>
        <mxCell id="iYCMDxc2Xl821RrgrOWA-8" value="User Mod 3" style="rounded=0;whiteSpace=wrap;html=1;horizontal=0;fillColor=#ffcd28;strokeColor=#d79b00;gradientColor=#ffa500;" vertex="1" parent="iYCMDxc2Xl821RrgrOWA-1">
          <mxGeometry x="333.63" y="300" width="25.5" height="70" as="geometry" />
        </mxCell>
        <mxCell id="iYCMDxc2Xl821RrgrOWA-9" value="User Mod 4" style="rounded=0;whiteSpace=wrap;html=1;horizontal=0;fillColor=#ffcd28;strokeColor=#d79b00;gradientColor=#ffa500;" vertex="1" parent="iYCMDxc2Xl821RrgrOWA-1">
          <mxGeometry x="359.13" y="300" width="25.5" height="70" as="geometry" />
        </mxCell>
        <mxCell id="iYCMDxc2Xl821RrgrOWA-10" value="User Mod 5" style="rounded=0;whiteSpace=wrap;html=1;horizontal=0;fillColor=#fff2cc;strokeColor=#d6b656;gradientColor=#ffd966;" vertex="1" parent="iYCMDxc2Xl821RrgrOWA-1">
          <mxGeometry x="385" y="300" width="25.5" height="70" as="geometry" />
        </mxCell>
        <mxCell id="iYCMDxc2Xl821RrgrOWA-11" value="&amp;nbsp;TVS FPGA" style="rounded=0;whiteSpace=wrap;html=1;fillColor=#008a00;fontColor=#ffffff;strokeColor=#005700;horizontal=0;verticalAlign=top;align=left;" vertex="1" parent="iYCMDxc2Xl821RrgrOWA-1">
          <mxGeometry x="270" y="100" width="150" height="200" as="geometry" />
        </mxCell>
        <mxCell id="iYCMDxc2Xl821RrgrOWA-12" value="" style="whiteSpace=wrap;html=1;fillColor=light-dark(#feffc7, #281d00);textShadow=0;strokeColor=light-dark(#CCCC00,#6D5100);strokeWidth=3;horizontal=0;verticalAlign=top;fontSize=16;gradientColor=light-dark(#d7e236, #543300);gradientDirection=south;" vertex="1" parent="iYCMDxc2Xl821RrgrOWA-1">
          <mxGeometry x="280" y="110" width="130" height="89" as="geometry" />
        </mxCell>
        <mxCell id="iYCMDxc2Xl821RrgrOWA-13" value="&lt;span style=&quot;font-size: 16px;&quot;&gt;(if applicable)&lt;/span&gt;" style="text;html=1;align=center;verticalAlign=middle;resizable=0;points=[];autosize=1;strokeColor=none;fillColor=none;fontColor=default;" vertex="1" parent="iYCMDxc2Xl821RrgrOWA-1">
          <mxGeometry x="284" y="169" width="120" height="30" as="geometry" />
        </mxCell>
        <mxCell id="iYCMDxc2Xl821RrgrOWA-14" value="&lt;span style=&quot;font-size: 16px;&quot;&gt;DUT Software&lt;/span&gt;" style="text;html=1;align=center;verticalAlign=middle;resizable=0;points=[];autosize=1;strokeColor=none;fillColor=none;fontColor=default;" vertex="1" parent="iYCMDxc2Xl821RrgrOWA-1">
          <mxGeometry x="284" y="149" width="120" height="30" as="geometry" />
        </mxCell>
        <mxCell id="iYCMDxc2Xl821RrgrOWA-15" value="&lt;div&gt;&lt;span style=&quot;font-size: 16px;&quot;&gt;Soft CPU&lt;/span&gt;&lt;/div&gt;" style="text;html=1;align=center;verticalAlign=middle;resizable=0;points=[];autosize=1;strokeColor=none;fillColor=none;fontColor=default;fontStyle=1" vertex="1" parent="iYCMDxc2Xl821RrgrOWA-1">
          <mxGeometry x="300" y="119" width="90" height="30" as="geometry" />
        </mxCell>
        <mxCell id="iYCMDxc2Xl821RrgrOWA-16" value="" style="endArrow=classic;html=1;rounded=0;strokeWidth=2;strokeColor=#FFFFFF;startArrow=classic;startFill=1;entryX=0.5;entryY=1;entryDx=0;entryDy=0;fontColor=#FFFFFF;exitX=0.426;exitY=-0.019;exitDx=0;exitDy=0;exitPerimeter=0;" edge="1" parent="iYCMDxc2Xl821RrgrOWA-1" source="iYCMDxc2Xl821RrgrOWA-18">
          <mxGeometry width="50" height="50" relative="1" as="geometry">
            <mxPoint x="344" y="240" as="sourcePoint" />
            <mxPoint x="344" y="200" as="targetPoint" />
          </mxGeometry>
        </mxCell>
        <mxCell id="iYCMDxc2Xl821RrgrOWA-17" value="On Chip&amp;nbsp;&lt;div&gt;Bus&lt;/div&gt;" style="edgeLabel;html=1;align=left;verticalAlign=middle;resizable=0;points=[];labelBackgroundColor=none;fontColor=#FFFFFF;" vertex="1" connectable="0" parent="iYCMDxc2Xl821RrgrOWA-16">
          <mxGeometry x="0.3667" y="-1" relative="1" as="geometry">
            <mxPoint x="9" y="6" as="offset" />
          </mxGeometry>
        </mxCell>
        <mxCell id="iYCMDxc2Xl821RrgrOWA-18" value="&lt;font style=&quot;font-size: 23px;&quot;&gt;DUT Logic&lt;/font&gt;" style="whiteSpace=wrap;html=1;fillColor=#ffcd28;textShadow=0;strokeColor=#d79b00;strokeWidth=3;gradientColor=#ffa500;" vertex="1" parent="iYCMDxc2Xl821RrgrOWA-1">
          <mxGeometry x="295" y="239" width="115" height="52" as="geometry" />
        </mxCell>
        <mxCell id="iYCMDxc2Xl821RrgrOWA-19" value="&lt;font style=&quot;font-size: 18px;&quot;&gt;Other Subsystems&lt;/font&gt;" style="whiteSpace=wrap;html=1;fillColor=#f8cecc;textShadow=0;strokeColor=#b85450;strokeWidth=3;" vertex="1" parent="iYCMDxc2Xl821RrgrOWA-1">
          <mxGeometry x="263.38" y="398" width="166.62" height="52" as="geometry" />
        </mxCell>
        <mxCell id="iYCMDxc2Xl821RrgrOWA-20" value="" style="group" vertex="1" connectable="0" parent="iYCMDxc2Xl821RrgrOWA-1">
          <mxGeometry x="310" y="370" width="75" height="28" as="geometry" />
        </mxCell>
        <mxCell id="iYCMDxc2Xl821RrgrOWA-21" value="" style="endArrow=classic;html=1;rounded=0;entryX=0.25;entryY=0;entryDx=0;entryDy=0;strokeWidth=4;strokeColor=#10739E;exitX=0.25;exitY=1;exitDx=0;exitDy=0;" edge="1" parent="iYCMDxc2Xl821RrgrOWA-20">
          <mxGeometry width="50" height="50" relative="1" as="geometry">
            <mxPoint as="sourcePoint" />
            <mxPoint y="28" as="targetPoint" />
          </mxGeometry>
        </mxCell>
        <mxCell id="iYCMDxc2Xl821RrgrOWA-22" value="" style="endArrow=classic;html=1;rounded=0;strokeWidth=4;exitX=0.75;exitY=0;exitDx=0;exitDy=0;strokeColor=#10739E;entryX=0.75;entryY=1;entryDx=0;entryDy=0;" edge="1" parent="iYCMDxc2Xl821RrgrOWA-20">
          <mxGeometry width="50" height="50" relative="1" as="geometry">
            <mxPoint x="75" y="28" as="sourcePoint" />
            <mxPoint x="75" as="targetPoint" />
          </mxGeometry>
        </mxCell>
      </root>
    </mxGraphModel>
  </diagram>
</mxfile>
